<svg version="1.2" xmlns="http://www.w3.org/2000/svg" viewBox="0 0 720 500" width="720" height="500">
	<title>EBP KOREA_logo_3-ai</title>
	<style>
		.s0 { fill: #000000 } 
	</style>
	<g id="레이어 1">
		<g id="&lt;Group&gt;">
			<g id="&lt;Group&gt;">
				<g id="&lt;Group&gt;">
					<g id="&lt;Group&gt;">
						<path id="&lt;Compound Path&gt;" class="s0" d="m337.3 428.2l-50.7-49.8v49.8h-8.5v-98.5h8.5v44.2l48-44.2h11.1l-50.4 46.5 53.2 52z"/>
						<path id="&lt;Compound Path&gt;" fill-rule="evenodd" class="s0" d="m388.8 328.3c27.9 0 49 22 49 50.7 0 28.7-21.1 50.6-49 50.6-27.9 0-49-21.9-49-50.6 0-28.7 21.1-50.7 49-50.7zm0 93.3c23.8 0 40.5-19.3 40.5-42.6 0-23.4-16.7-42.7-40.5-42.7-23.8 0-40.6 19.3-40.6 42.7 0 23.3 16.8 42.6 40.6 42.6z"/>
						<path id="&lt;Compound Path&gt;" fill-rule="evenodd" class="s0" d="m513.9 428.2l-38-50.4h-16.6v50.4h-8.4v-98.5h33.6c9 0 14.8 2.4 19.1 6.3 4.8 4.4 7.8 10.7 7.8 17.8 0 7-3 13.3-7.8 17.7-4 3.8-9.4 6.1-17.6 6.3l38.1 50.4zm-29.9-58.4c7.1 0 10.9-1.5 13.7-4.2 3.2-3 5.2-7.2 5.2-11.8 0-4.7-2-8.9-5.2-11.9-2.8-2.6-6.6-4.2-13.7-4.2h-24.8v32.1z"/>
						<path id="&lt;Compound Path&gt;" class="s0" d="m538.3 337.7v32.1h35.2v8h-35.2v42.4h46.4v8h-54.9v-98.5h53.5v8z"/>
						<path id="&lt;Compound Path&gt;" fill-rule="evenodd" class="s0" d="m633 329.7l42.5 98.5h-8.6l-12.8-29.7h-48.1l-12.8 29.7h-8.3l42.5-98.5zm-23.5 60.8h41.1l-20.6-47.8z"/>
					</g>
					<g id="&lt;Group&gt;">
						<g id="&lt;Group&gt;">
							<path id="&lt;Compound Path&gt;" fill-rule="evenodd" class="s0" d="m280.4 452.9h-2.3v-3.2h6v-3h3.5v3h5.8v3.2h-2.2c0.6 0.9 1 2 1 3.3 0 3-2.2 5.9-6.5 5.9-3.3 0-6.3-2.5-6.3-5.9 0-1.2 0.4-2.4 1-3.3zm20.7 17.9v3.2h-17.3v-6.8h-1.9v-2.8h5.4v6.4zm-12.4-14.6c0-1.5-1-2.8-3-2.8-1.8 0-2.8 1.4-2.8 2.8 0 1.5 1.1 2.7 2.8 2.7 1.9 0 3-1.2 3-2.7zm15-1.2v3.2h-4.1v9.7h-3.5v-18.8h-2.2v-2.9h5.7v8.8z"/>
							<path id="&lt;Compound Path&gt;" class="s0" d="m331.1 456.7v3.2h-10.5v3.7h7.7v11.1h-3.6v-7.9h-15.9v-3.2h8.3v-3.7h-10.6v-3.2h17.7c0.3-1.5 0.4-3.2 0.5-5.9h-15.3v-3.2h18.8c0 4-0.2 6.9-0.5 9.1z"/>
							<path id="&lt;Compound Path&gt;" class="s0" d="m369.4 458.2v3.2h-24.6v-3.2h17.8c0.4-1.9 0.4-4.4 0.4-7.5h-15.2v-3.1h18.6c0 3.9-0.1 7.8-0.4 10.6zm-2.3 12.7v3.2h-18.5v-7.8h-1.7v-2.8h5.2v7.4z"/>
							<path id="&lt;Compound Path&gt;" class="s0" d="m388.2 449.1v1.8c0 6.7-4.7 13.7-13 16.2l-1.7-3.1c6.7-1.1 10.7-6.7 11.1-11.6h-9.9v-3.3zm8-2.9v28.4h-3.4v-15.3h-5.1v-3.2h5.1v-7h-2.2v-2.9z"/>
							<path id="&lt;Compound Path&gt;" class="s0" d="m418.2 449.1v1.8c0 6.5-4.9 13.6-13.2 16.3l-1.8-3.2c6.6-1.4 11-6.7 11.4-11.6h-9.9v-3.3zm7.1-2.9v28.4h-3.5v-25.5h-2.1v-2.9z"/>
							<path id="&lt;Compound Path&gt;" fill-rule="evenodd" class="s0" d="m446 448.4v13.3h-13.4v-10.2h-1.6v-2.7h5.1v3.8h6.3v-4.2zm8 22.4v3.2h-16.8v-6.8h-1.9v-2.8h5.4v6.4zm-17.9-12.2h6.4v-2.9h-6.4zm21.1-4.6v3.1h-4v10.8h-3.6v-18.8h-2.1v-2.9h5.7v7.8z"/>
							<path id="&lt;Compound Path&gt;" fill-rule="evenodd" class="s0" d="m480.4 450c0 4.4 3 7.3 6.6 8.4l-1.9 3c-2.4-1.2-5.2-3.6-6.5-5.6-1.1 2.2-4 5.2-6.9 6.6l-2-2.8c3.8-1.1 6.9-5 6.9-8.4h-1.8v-2.9h5.6zm12.3 13.4v10.6h-16.1v-7.7h-1.5v-2.9zm-12.6 7.5h9.1v-4.3h-9.1zm12.6-24.7v16.3h-3.5v-13.4h-2.2v-2.9z"/>
							<path id="&lt;Compound Path&gt;" class="s0" d="m517.9 474.6v-8h-16.8v-8.1h-1.8v-3h11.1v-3.9h-10.2v-3.2h13.7v10.2h-9.3v4.8h13.3v-14.3h-2.1v-2.9h5.6v28.4z"/>
							<path id="&lt;Compound Path&gt;" class="s0" d="m545.2 464l-2 3c-2.5-1.7-5.8-5-7-7.6-1.2 2.7-4.5 6.4-7.3 8l-2.1-2.8c3.4-1.3 6.6-5.6 7.2-8.5 0.3-1.5 0.4-2.7 0.4-4.5h-1.9v-2.8h5.6v2.7c0 1.7 0.2 3 0.4 4.3 0.6 3.4 3.7 7 6.7 8.2zm5.1-17.8v28.4h-3.5v-16.6h-5.3v-3.2h5.3v-5.7h-2.1v-2.9z"/>
							<path id="&lt;Compound Path&gt;" fill-rule="evenodd" class="s0" d="m571.4 448.8v17.6h-13.3v-14.4h-1.9v-2.9h5.4v5.8h6.3v-6.1zm-9.8 14.4h6.3v-5.1h-6.3zm17.4-16.9v28.4h-3.5v-25.6h-2.1v-2.8z"/>
							<path id="&lt;Compound Path&gt;" class="s0" d="m609.1 465.9v3.2h-24v-3.2zm-0.5-7.3l-1.7 3c-4.7-1.3-8.4-4.5-9.9-6.9-1.5 2.4-5.6 5.8-9.8 6.9l-1.7-2.9c4.7-0.6 9.2-4.5 9.5-7.8h-1.7v-2.8h5.7c0 1.7 0.1 3.2 0.4 3.9 1.5 4.1 5.5 6 9.2 6.6z"/>
							<path id="&lt;Compound Path&gt;" class="s0" d="m632.1 450.9c0 3.5 2.2 7.4 5.5 8.6l-2.2 3c-2.1-1.5-4.2-3.7-5.1-5.5-1.1 2-3.2 4.6-5.6 6l-2.2-2.8c3.8-1.4 5.9-5.5 5.9-8.9h-1.6v-2.9h5.3zm14.8 20v3.2h-16.9v-7.6h-1.9v-2.8h5.3v7.2zm-5.4-24.5v21.6h-3.4v-12.2h-3.4v-3.1h3.4v-3.5h-1.8v-2.8zm4.9-0.1v21.7h-3.3v-18.9h-1v-2.8z"/>
							<path id="&lt;Compound Path&gt;" class="s0" d="m667.9 463.1v3.2h-14.2v-14.7h-1.8v-2.8h15.1v3.1h-9.8v3.9h7.9v3.2h-7.9v4.1zm6.7-16.9v28.4h-3.5v-15.7h-4.2v-3.1h4.2v-6.7h-2.2v-2.9z"/>
						</g>
					</g>
				</g>
				<path id="&lt;Path&gt;" class="s0" d="m262.2 462.7h-217.7v-2.8h217.7z"/>
			</g>
			<g id="&lt;Group&gt;">
				<path id="&lt;Path&gt;" class="s0" d="m254.7 104.9c0 0 85.6-87.9 170.4 36.7 0 0-38-114.3-114.5-95.7-50.2 12.2-55.9 59-55.9 59z"/>
				<g id="&lt;Group&gt;">
					<path id="&lt;Path&gt;" class="s0" d="m330.8 30.7c0 0 66.8 1.1 98.4 97.4 0 0 12-68-29.8-93.2-31-18.7-68.6-4.2-68.6-4.2z"/>
				</g>
				<g id="&lt;Group&gt;">
					<path id="&lt;Path&gt;" class="s0" d="m44.5 428.2h59.1v-15.4h-42.2v-67.6h42.2v-15.5h-59.1z"/>
					<path id="&lt;Compound Path&gt;" fill-rule="evenodd" class="s0" d="m185.7 398.4c0 8.7-4 16.5-9.9 22-5.3 4.9-12.4 7.8-23.9 7.8h-38v-98.5h33.2c10.6 0 16.8 2.5 21.4 6.9 5.2 4.8 8.7 11.7 8.7 19.4 0 6.5-3.1 13.1-7 16.9 9 4.5 15.5 14.5 15.5 25.5zm-54.9-30.4h15.2c5.9 0 8.7-1.1 10.7-3 2.2-2.1 3.6-5 3.6-8.5 0-3.6-1.4-6.5-3.6-8.6-2-1.9-4.8-3-10.7-3h-15.2zm38 30c0-4.2-1.6-7.9-4.2-10.6-2.7-2.8-6.5-4.5-13.7-4.5h-20.1v30.2h20.1c7.2 0 11-1.7 13.7-4.5 2.6-2.7 4.2-6.4 4.2-10.6z"/>
					<path id="&lt;Compound Path&gt;" fill-rule="evenodd" class="s0" d="m263.9 358.3c0 9.6-4.5 17.6-11.4 22.8-4.8 3.5-10.7 5.6-20 5.6h-20.7v41.5h-16.8v-98.5h37.5c9.3 0 15.2 2.1 20 5.6 6.9 5.3 11.4 13.4 11.4 23zm-16.9 0c0-4.2-1.8-7.9-4.7-10.3-2.3-2-5.3-3.1-11.4-3.1h-19.1v26.6h19.1c6.1 0 9.1-1.1 11.4-3.1 2.9-2.4 4.7-5.9 4.7-10.1z"/>
					<path id="&lt;Path&gt;" class="s0" d="m71.9 376.6c-1.3 5.5 2.1 11 7.6 12.3 5.4 1.3 10.9-2.1 12.2-7.6 1.3-5.5-2.1-10.9-7.6-12.2-5.4-1.3-10.9 2.1-12.2 7.5z"/>
					<path id="&lt;Path&gt;" class="s0" d="m481.1 122.9c-6.1-27.2-20.6-50.6-41.9-67.8l-3.7-3-6.6-4.7c0.3 0.6 2.1 3.3 4.4 7.5 0.5 1 1.1 2.1 1.7 3.4 0.9 1.7 1.8 3.7 2.8 5.8 2 4.6 4.1 10 5.7 15.8 0 0 0 0 0.1 0.1 5.5 18.9 6.6 42.5-10.7 60.8 2.4-1.3 20.1-11.6 27.7-33.3l0.2 0.4c2.4 5.8 4.4 12 5.8 18.3 10.7 47.1-13 96.9-56.5 118.2-43.1 21.3-98.1 13.3-127-24.8-32.1-42.2-13.8-98.7-13.8-98.7 10.5-7.3 28-12.8 45.8-15.6 73.9-11.7 63 67.9 116.5 79.1-61.3 60.8-114.1-16.1-114.1-16.1 42.9 96.5 133.3 36.7 140.8 2.3-22.3 4.6-43.7-9.2-68.2-49.6-13.8-22.9-41.6-37-77.7-30.2-26.5 4.9-39.3 11.2-57.1 22 0 0-5.3 14-6.8 32.9-2.3 29.2 2.5 59.9 23.4 83.6 33.1 37.5 85.9 50.5 132.3 33.8 4.2-1.5 8.4-3.3 12.5-5.3 49.6-24.4 76.6-81.1 64.4-134.9z"/>
				</g>
			</g>
		</g>
	</g>
</svg>