<svg version="1.2" xmlns="http://www.w3.org/2000/svg" viewBox="0 0 237 245" width="237" height="245">
	<title>EBP KOREA_logo_3-ai</title>
	<style>
		.s0 { fill: #000000 } 
	</style>
	<g id="레이어 1">
		<g id="&lt;Group&gt;">
			<g id="&lt;Group&gt;">
				<g id="&lt;Group&gt;">
					<g id="&lt;Group&gt;">
					</g>
					<g id="&lt;Group&gt;">
						<g id="&lt;Group&gt;">
						</g>
					</g>
				</g>
			</g>
			<g id="&lt;Group&gt;">
				<path id="&lt;Path&gt;" class="s0" d="m7.7 79.9c0 0 85.6-87.9 170.4 36.7 0 0-38-114.3-114.5-95.7-50.2 12.2-55.9 59-55.9 59z"/>
				<g id="&lt;Group&gt;">
					<path id="&lt;Path&gt;" class="s0" d="m83.8 5.7c0 0 66.8 1.1 98.4 97.4 0 0 12-68-29.8-93.2-31-18.7-68.6-4.2-68.6-4.2z"/>
				</g>
				<g id="&lt;Group&gt;">
					<path id="&lt;Path&gt;" class="s0" d="m234.1 97.9c-6.1-27.2-20.6-50.6-41.9-67.8l-3.7-3-6.6-4.7c0.3 0.6 2.1 3.3 4.4 7.5 0.5 1 1.1 2.1 1.7 3.4 0.9 1.7 1.8 3.7 2.8 5.8 2 4.6 4.1 10 5.7 15.8 0 0 0 0 0.1 0.1 5.5 18.9 6.6 42.5-10.7 60.8 2.4-1.3 20.1-11.6 27.7-33.3l0.2 0.4c2.4 5.8 4.4 12 5.8 18.3 10.7 47.1-13 96.9-56.5 118.2-43.1 21.3-98.1 13.3-127-24.8-32.1-42.2-13.8-98.7-13.8-98.7 10.5-7.3 28-12.8 45.8-15.6 73.9-11.7 63 67.9 116.5 79.1-61.3 60.8-114.1-16.1-114.1-16.1 42.9 96.5 133.3 36.7 140.8 2.3-22.3 4.6-43.7-9.2-68.2-49.6-13.8-22.9-41.6-37-77.7-30.2-26.5 4.9-39.3 11.2-57.1 22 0 0-5.3 14-6.8 32.9-2.3 29.2 2.5 59.9 23.4 83.6 33.1 37.5 85.9 50.5 132.3 33.8 4.2-1.5 8.4-3.3 12.5-5.3 49.6-24.4 76.6-81.1 64.4-134.9z"/>
				</g>
			</g>
		</g>
	</g>
</svg>